<?xml version="1.0" encoding="UTF-8" standalone="no"?>
<svg
   width="375.12906pt"
   height="422.10901pt"
   version="1.1"
   viewBox="0 0 375.12906 422.10901"
   id="svg215"
   sodipodi:docname="lace.svg"
   inkscape:version="1.2.1 (9c6d41e, 2022-07-14)"
   inkscape:export-filename="../../../Desktop/lace.png"
   inkscape:export-xdpi="96"
   inkscape:export-ydpi="96"
   xmlns:inkscape="http://www.inkscape.org/namespaces/inkscape"
   xmlns:sodipodi="http://sodipodi.sourceforge.net/DTD/sodipodi-0.dtd"
   xmlns="http://www.w3.org/2000/svg"
   xmlns:svg="http://www.w3.org/2000/svg">
  <sodipodi:namedview
     id="namedview217"
     pagecolor="#ffffff"
     bordercolor="#000000"
     borderopacity="0.25"
     inkscape:showpageshadow="2"
     inkscape:pageopacity="0.0"
     inkscape:pagecheckerboard="0"
     inkscape:deskcolor="#d1d1d1"
     inkscape:document-units="pt"
     showgrid="false"
     inkscape:zoom="1.0114286"
     inkscape:cx="-70.692088"
     inkscape:cy="384.11016"
     inkscape:window-width="2056"
     inkscape:window-height="1257"
     inkscape:window-x="0"
     inkscape:window-y="44"
     inkscape:window-maximized="0"
     inkscape:current-layer="svg215">
    <inkscape:grid
       type="xygrid"
       id="grid717"
       originx="-124.82384"
       originy="-93.60186" />
  </sodipodi:namedview>
  <defs
     id="defs77">
    <rect
       x="121.61017"
       y="577.40112"
       width="734.60455"
       height="278.81357"
       id="rect779" />
    <rect
       x="169.06779"
       y="717.79663"
       width="566.52539"
       height="184.88701"
       id="rect773" />
    <symbol
       id="h"
       overflow="visible">
      <path
         d="m 18.766,-1.125 c -0.96875,0.5 -1.9805,0.875 -3.0312,1.125 -1.043,0.25781 -2.1367,0.39062 -3.2812,0.39062 -3.3984,0 -6.0898,-0.94531 -8.0781,-2.8438 -1.9922,-1.9062 -2.9844,-4.4844 -2.9844,-7.7344 0,-3.2578 0.99219,-5.8359 2.9844,-7.7344 1.9883,-1.9062 4.6797,-2.8594 8.0781,-2.8594 1.1445,0 2.2383,0.13281 3.2812,0.39062 1.0508,0.25 2.0625,0.625 3.0312,1.125 v 4.2188 c -0.98047,-0.65625 -1.9453,-1.1406 -2.8906,-1.4531 -0.94922,-0.3125 -1.9492,-0.46875 -3,-0.46875 -1.875,0 -3.3516,0.60547 -4.4219,1.8125 -1.0742,1.1992 -1.6094,2.8555 -1.6094,4.9688 0,2.1055 0.53516,3.7617 1.6094,4.9688 1.0703,1.1992 2.5469,1.7969 4.4219,1.7969 1.0508,0 2.0508,-0.14844 3,-0.45312 0.94531,-0.3125 1.9102,-0.80078 2.8906,-1.4688 z"
         id="path2" />
    </symbol>
    <symbol
       id="c"
       overflow="visible">
      <path
         d="m 13.734,-11.141 c -0.4375,-0.19531 -0.87109,-0.34375 -1.2969,-0.4375 -0.41797,-0.10156 -0.83984,-0.15625 -1.2656,-0.15625 -1.2617,0 -2.2305,0.40625 -2.9062,1.2188 -0.67969,0.80469 -1.0156,1.9531 -1.0156,3.4531 v 7.0625 H 2.3591 v -15.312 h 4.8906 v 2.5156 c 0.625,-1 1.3438,-1.7266 2.1562,-2.1875 0.82031,-0.46875 1.8008,-0.70312 2.9375,-0.70312 0.16406,0 0.34375,0.01172 0.53125,0.03125 0.19531,0.01172 0.47656,0.03906 0.84375,0.07813 z"
         id="path5" />
    </symbol>
    <symbol
       id="a"
       overflow="visible">
      <path
         d="m 17.641,-7.7031 v 1.4062 H 6.188 c 0.125,1.1484 0.53906,2.0078 1.25,2.5781 0.70703,0.57422 1.7031,0.85938 2.9844,0.85938 1.0312,0 2.082,-0.14844 3.1562,-0.45312 1.082,-0.3125 2.1914,-0.77344 3.3281,-1.3906 v 3.7656 c -1.1562,0.4375 -2.3125,0.76562 -3.4688,0.98438 -1.1562,0.22656 -2.3125,0.34375 -3.4688,0.34375 -2.7734,0 -4.9297,-0.70312 -6.4688,-2.1094 -1.5312,-1.4062 -2.2969,-3.3789 -2.2969,-5.9219 0,-2.5 0.75391,-4.4609 2.2656,-5.8906 1.5078,-1.4375 3.582,-2.1562 6.2188,-2.1562 2.4062,0 4.332,0.73047 5.7812,2.1875 1.4453,1.4492 2.1719,3.3828 2.1719,5.7969 z m -5.0312,-1.625 c 0,-0.92578 -0.27344,-1.6719 -0.8125,-2.2344 -0.54297,-0.57031 -1.25,-0.85938 -2.125,-0.85938 -0.94922,0 -1.7188,0.26562 -2.3125,0.79688 -0.5937,0.53126 -0.96484,1.2969 -1.1094,2.2969 z"
         id="path8" />
    </symbol>
    <symbol
       id="m"
       overflow="visible">
      <path
         d="m 9.2188,-6.8906 c -1.0234,0 -1.793,0.17188 -2.3125,0.51562 -0.51172,0.34375 -0.76562,0.85547 -0.76562,1.5312 0,0.625 0.20703,1.1172 0.625,1.4688 0.41406,0.34375 0.98828,0.51562 1.7188,0.51562 0.92578,0 1.7031,-0.32812 2.3281,-0.98438 0.63281,-0.66406 0.95312,-1.4922 0.95312,-2.4844 v -0.5625 z m 7.4688,-1.8438 V 0 h -4.9219 v -2.2656 c -0.65625,0.92969 -1.3984,1.6055 -2.2188,2.0312 -0.82422,0.41406 -1.8242,0.625 -3,0.625 -1.5859,0 -2.8711,-0.45703 -3.8594,-1.375 -0.99219,-0.92578 -1.4844,-2.1289 -1.4844,-3.6094 0,-1.7891 0.61328,-3.1016 1.8438,-3.9375 1.2383,-0.84375 3.1797,-1.2656 5.8281,-1.2656 h 2.8906 v -0.39062 c 0,-0.76953 -0.30859,-1.332 -0.92188,-1.6875 -0.61719,-0.36328 -1.5703,-0.54688 -2.8594,-0.54688 -1.0547,0 -2.0312,0.10547 -2.9375,0.3125 -0.89844,0.21094 -1.7305,0.52344 -2.5,0.9375 v -3.7344 c 1.0391,-0.25 2.0859,-0.44141 3.1406,-0.57812 1.0625,-0.13281 2.125,-0.20312 3.1875,-0.20312 2.7578,0 4.75,0.54688 5.9688,1.6406 1.2266,1.0859 1.8438,2.8555 1.8438,5.3125 z"
         id="path11" />
    </symbol>
    <symbol
       id="b"
       overflow="visible">
      <path
         d="m 7.7031,-19.656 v 4.3438 H 12.75 v 3.5 H 7.7031 v 6.5 c 0,0.71094 0.14062,1.1875 0.42188,1.4375 0.28126,0.25 0.83594,0.375 1.6719,0.375 h 2.5156 v 3.5 h -4.1875 c -1.9375,0 -3.3125,-0.39844 -4.125,-1.2031 -0.80469,-0.8125 -1.2031,-2.1797 -1.2031,-4.1094 v -6.5 h -2.4219 v -3.5 h 2.4219 v -4.3438 z"
         id="path14" />
    </symbol>
    <symbol
       id="l"
       overflow="visible">
      <path
         d="m 12.766,-13.078 v -8.2031 h 4.9219 V -1e-4 H 12.766 v -2.2188 c -0.66797,0.90625 -1.4062,1.5703 -2.2188,1.9844 -0.8126,0.4141 -1.7578,0.625 -2.8281,0.625 -1.8867,0 -3.4336,-0.75 -4.6406,-2.25 -1.2109,-1.5 -1.8125,-3.4258 -1.8125,-5.7812 0,-2.3633 0.60156,-4.2969 1.8125,-5.7969 1.207,-1.5 2.7539,-2.25 4.6406,-2.25 1.0625,0 2,0.21484 2.8125,0.64062 0.82031,0.42969 1.5664,1.0859 2.2344,1.9688 z m -3.2188,9.9219 c 1.0391,0 1.8359,-0.37891 2.3906,-1.1406 0.55078,-0.76953 0.82812,-1.8828 0.82812,-3.3438 0,-1.457 -0.27734,-2.5664 -0.82812,-3.3281 -0.55469,-0.76953 -1.3516,-1.1562 -2.3906,-1.1562 -1.043,0 -1.8398,0.38672 -2.3906,1.1562 -0.55469,0.76172 -0.82812,1.8711 -0.82812,3.3281 0,1.4609 0.27344,2.5742 0.82812,3.3438 0.55078,0.76172 1.3477,1.1406 2.3906,1.1406 z"
         id="path17" />
    </symbol>
    <symbol
       id="k"
       overflow="visible">
      <path
         d="m 10.5,-3.1562 c 1.0508,0 1.8516,-0.37891 2.4062,-1.1406 0.55078,-0.76953 0.82812,-1.8828 0.82812,-3.3438 0,-1.457 -0.27734,-2.5664 -0.82812,-3.3281 -0.55469,-0.76953 -1.3555,-1.1562 -2.4062,-1.1562 -1.0547,0 -1.8594,0.38672 -2.4219,1.1562 -0.55469,0.77344 -0.82812,1.8828 -0.82812,3.3281 0,1.4492 0.27344,2.5586 0.82812,3.3281 0.5625,0.77344 1.3672,1.1562 2.4219,1.1562 z m -3.25,-9.9219 c 0.67578,-0.88281 1.4219,-1.5391 2.2344,-1.9688 0.82031,-0.42578 1.7656,-0.64062 2.8281,-0.64062 1.8945,0 3.4453,0.75 4.6562,2.25 1.207,1.5 1.8125,3.4336 1.8125,5.7969 0,2.3555 -0.60547,4.2812 -1.8125,5.7812 -1.2109,1.5 -2.7617,2.25 -4.6562,2.25 -1.0625,0 -2.0078,-0.21094 -2.8281,-0.625 C 8.6719,-0.6602 7.9258,-1.32032 7.25,-2.21882 V -2e-5 H 2.3594 v -21.281 H 7.25 Z"
         id="path20" />
    </symbol>
    <symbol
       id="j"
       overflow="visible">
      <path
         d="m 0.34375,-15.312 h 4.8906 l 4.125,10.391 3.5,-10.391 h 4.8906 l -6.4375,16.766 c -0.64844,1.6953 -1.4023,2.8828 -2.2656,3.5625 -0.86719,0.6875 -2,1.0312 -3.4062,1.0312 H 2.79685 V 2.8289 h 1.5312 c 0.83203,0 1.4375,-0.13672 1.8125,-0.40625 C 6.52336,2.16093 6.82024,1.69218 7.03117,1.01645 L 7.17179,0.59457 Z"
         id="path23" />
    </symbol>
    <symbol
       id="i"
       overflow="visible">
      <path
         d="m 2.5781,-20.406 h 6.6875 l 4.6562,10.922 4.6719,-10.922 h 6.6875 V 0 H 20.2968 V -14.938 L 15.5937,-3.922 H 12.2656 L 7.5625,-14.938 V 0 H 2.5781 Z"
         id="path26" />
    </symbol>
    <symbol
       id="f"
       overflow="visible">
      <path
         d="m 11.891,-16.969 c -1.6055,0 -2.8516,0.59375 -3.7344,1.7812 -0.875,1.1875 -1.3125,2.8555 -1.3125,5 0,2.1484 0.4375,3.8125 1.3125,5 0.88281,1.1797 2.1289,1.7656 3.7344,1.7656 1.6133,0 2.8633,-0.58594 3.75,-1.7656 0.88281,-1.1875 1.3281,-2.8516 1.3281,-5 0,-2.1445 -0.44531,-3.8125 -1.3281,-5 -0.88672,-1.1875 -2.1367,-1.7812 -3.75,-1.7812 z m 0,-3.8125 c 3.2812,0 5.8477,0.9375 7.7031,2.8125 1.8633,1.875 2.7969,4.4688 2.7969,7.7812 0,3.3047 -0.93359,5.8906 -2.7969,7.7656 -1.8555,1.875 -4.4219,2.8125 -7.7031,2.8125 -3.2734,0 -5.8398,-0.9375 -7.7031,-2.8125 -1.8672,-1.875 -2.7969,-4.4609 -2.7969,-7.7656 0,-3.3125 0.92969,-5.9062 2.7969,-7.7812 1.8633,-1.875 4.4297,-2.8125 7.7031,-2.8125 z"
         id="path29" />
    </symbol>
    <symbol
       id="e"
       overflow="visible">
      <path
         d="m 2.5781,-20.406 h 5.875 l 7.4219,14 v -14 h 4.9844 V 0 h -5.875 L 7.5625,-14 V 0 H 2.5781 Z"
         id="path32" />
    </symbol>
    <symbol
       id="y"
       overflow="visible">
      <path
         d="m 0.14062,-20.406 h 18.812 v 3.9688 h -6.7656 V 8e-4 h -5.2656 v -16.438 h -6.7812 z"
         id="path35" />
    </symbol>
    <symbol
       id="g"
       overflow="visible">
      <path
         d="M 14.953,-3.7188 H 6.7342 L 5.4217,0 H 0.1405 L 7.703,-20.406 h 6.2656 L 21.5311,0 H 16.2499 Z M 8.0468,-7.5 h 5.5781 l -2.7812,-8.125 z"
         id="path38" />
    </symbol>
    <symbol
       id="x"
       overflow="visible">
      <path
         d="m 10.047,-11.359 c 1.1016,0 1.8945,-0.20312 2.375,-0.60938 0.47656,-0.41406 0.71875,-1.0938 0.71875,-2.0312 0,-0.92578 -0.24219,-1.5859 -0.71875,-1.9844 -0.48047,-0.40625 -1.2734,-0.60938 -2.375,-0.60938 H 7.8282 v 5.2344 z M 7.8282,-7.7184 V 4e-4 h -5.25 v -20.406 h 8.0312 c 2.6875,0 4.6562,0.45312 5.9062,1.3594 1.2578,0.89844 1.8906,2.3203 1.8906,4.2656 0,1.3555 -0.32812,2.4648 -0.98438,3.3281 -0.64844,0.86719 -1.625,1.5 -2.9375,1.9062 0.71875,0.16797 1.3594,0.54297 1.9219,1.125 0.57031,0.57422 1.1484,1.4492 1.7344,2.625 l 2.8594,5.7969 h -5.6094 l -2.4844,-5.0781 c -0.5,-1.0195 -1.0117,-1.7109 -1.5312,-2.0781 -0.51172,-0.375 -1.1953,-0.5625 -2.0469,-0.5625 z"
         id="path41" />
    </symbol>
    <symbol
       id="w"
       overflow="visible">
      <path
         d="m 2.5781,-20.406 h 5.25 v 12.234 c 0,1.6875 0.27344,2.8984 0.82812,3.625 0.55078,0.71875 1.4531,1.0781 2.7031,1.0781 1.2578,0 2.1641,-0.35938 2.7188,-1.0781 0.55078,-0.72656 0.82812,-1.9375 0.82812,-3.625 v -12.234 h 5.2656 v 12.234 c 0,2.8867 -0.73047,5.0391 -2.1875,6.4531 -1.4492,1.4062 -3.6562,2.1094 -6.625,2.1094 -2.9609,0 -5.1641,-0.70312 -6.6094,-2.1094 -1.4492,-1.4141 -2.1719,-3.5664 -2.1719,-6.4531 z"
         id="path44" />
    </symbol>
    <symbol
       id="v"
       overflow="visible">
      <path
         d="m 10.75,-12.516 c 0.82031,0 1.4453,-0.17969 1.875,-0.54688 0.4375,-0.36328 0.65625,-0.89844 0.65625,-1.6094 0,-0.69531 -0.21875,-1.2266 -0.65625,-1.5938 -0.42969,-0.375 -1.0547,-0.5625 -1.875,-0.5625 H 7.8281 v 4.3125 z m 0.17188,8.9375 c 1.0625,0 1.8594,-0.22266 2.3906,-0.67188 0.53125,-0.44531 0.79688,-1.125 0.79688,-2.0312 0,-0.88281 -0.26562,-1.5469 -0.79688,-1.9844 -0.52344,-0.4375 -1.3203,-0.65625 -2.3906,-0.65625 h -3.0938 v 5.3438 z m 4.8906,-7.3438 c 1.1328,0.32422 2.0078,0.92969 2.625,1.8125 0.625,0.88672 0.9375,1.9688 0.9375,3.25 0,1.9688 -0.66797,3.4375 -2,4.4062 -1.3359,0.96875 -3.3555,1.4531 -6.0625,1.4531 h -8.7344 v -20.406 h 7.8906 c 2.832,0 4.8828,0.42969 6.1562,1.2812 1.2812,0.85547 1.9219,2.2266 1.9219,4.1094 0,1 -0.23438,1.8516 -0.70312,2.5469 -0.46875,0.6875 -1.1484,1.2031 -2.0312,1.5469 z"
         id="path47" />
    </symbol>
    <symbol
       id="u"
       overflow="visible">
      <path
         d="m 12.422,-21.281 v 3.2188 H 9.7189 c -0.6875,0 -1.1719,0.125 -1.4531,0.375 -0.27344,0.25 -0.40625,0.6875 -0.40625,1.3125 v 1.0625 h 4.1875 v 3.5 H 7.85955 V -2e-4 h -4.8906 v -11.812 h -2.4375 v -3.5 h 2.4375 v -1.0625 c 0,-1.6641 0.46094,-2.8984 1.3906,-3.7031 0.92578,-0.80078 2.3672,-1.2031 4.3281,-1.2031 z"
         id="path50" />
    </symbol>
    <symbol
       id="d"
       overflow="visible">
      <path
         d="m 9.6406,-12.188 c -1.0859,0 -1.9141,0.39062 -2.4844,1.1719 -0.57422,0.78125 -0.85938,1.9062 -0.85938,3.375 0,1.4688 0.28516,2.5938 0.85938,3.375 0.57031,0.77344 1.3984,1.1562 2.4844,1.1562 1.0625,0 1.875,-0.38281 2.4375,-1.1562 0.57031,-0.78125 0.85938,-1.9062 0.85938,-3.375 0,-1.4688 -0.28906,-2.5938 -0.85938,-3.375 -0.5625,-0.78125 -1.375,-1.1719 -2.4375,-1.1719 z m 0,-3.5 c 2.6328,0 4.6914,0.71484 6.1719,2.1406 1.4766,1.418 2.2188,3.3867 2.2188,5.9062 0,2.5117 -0.74219,4.4805 -2.2188,5.9062 C 14.332,-0.317 12.2734,0.39 9.6406,0.39 6.9922,0.39 4.9258,-0.31703 3.4375,-1.735 1.9453,-3.1608 1.2031,-5.1295 1.2031,-7.6412 c 0,-2.5195 0.74219,-4.4883 2.2344,-5.9062 1.4883,-1.4258 3.5547,-2.1406 6.2031,-2.1406 z"
         id="path53" />
    </symbol>
    <symbol
       id="t"
       overflow="visible">
      <path
         d="m 16.547,-12.766 c 0.61328,-0.94531 1.3477,-1.6719 2.2031,-2.1719 0.85156,-0.5 1.7891,-0.75 2.8125,-0.75 1.7578,0 3.0977,0.54688 4.0156,1.6406 0.92578,1.0859 1.3906,2.6562 1.3906,4.7188 V -4e-4 h -4.9219 v -7.9844 -0.35938 c 0.0078,-0.13281 0.01563,-0.32031 0.01563,-0.5625 0,-1.082 -0.16406,-1.8633 -0.48438,-2.3438 -0.3125,-0.48828 -0.82422,-0.73438 -1.5312,-0.73438 -0.92969,0 -1.6484,0.38672 -2.1562,1.1562 -0.51172,0.76172 -0.77344,1.8672 -0.78125,3.3125 v 7.5156 h -4.9219 v -7.9844 c 0,-1.6953 -0.14844,-2.7852 -0.4375,-3.2656 -0.29297,-0.48828 -0.8125,-0.73438 -1.5625,-0.73438 -0.9375,0 -1.6641,0.38672 -2.1719,1.1562 -0.51172,0.76172 -0.76562,1.8594 -0.76562,3.2969 v 7.5312 h -4.9219 v -15.312 h 4.9219 v 2.2344 c 0.60156,-0.86328 1.2891,-1.5156 2.0625,-1.9531 0.78125,-0.4375 1.6406,-0.65625 2.5781,-0.65625 1.0625,0 2,0.25781 2.8125,0.76562 0.8125,0.51172 1.4258,1.2305 1.8438,2.1562 z"
         id="path56" />
    </symbol>
    <symbol
       id="s"
       overflow="visible">
      <path
         d="M 17.75,-9.3281 V 0 h -4.9219 v -7.1094 c 0,-1.3438 -0.03125,-2.2656 -0.09375,-2.7656 -0.0625,-0.5 -0.16797,-0.86719 -0.3125,-1.1094 -0.1875,-0.3125 -0.44922,-0.55469 -0.78125,-0.73438 -0.32422,-0.17578 -0.69531,-0.26562 -1.1094,-0.26562 -1.0234,0 -1.8242,0.39844 -2.4062,1.1875 -0.58594,0.78125 -0.875,1.8711 -0.875,3.2656 V -1e-4 H 2.3594 v -21.281 H 7.25 v 8.2031 c 0.73828,-0.88281 1.5195,-1.5391 2.3438,-1.9688 0.83203,-0.42578 1.75,-0.64062 2.75,-0.64062 1.7695,0 3.1133,0.54688 4.0312,1.6406 0.91406,1.0859 1.375,2.6562 1.375,4.7188 z"
         id="path59" />
    </symbol>
    <symbol
       id="r"
       overflow="visible">
      <path
         d="m 2.1875,-5.9688 v -9.3438 h 4.9219 v 1.5312 c 0,0.83594 -0.00781,1.875 -0.015625,3.125 -0.011719,1.25 -0.015625,2.0859 -0.015625,2.5 0,1.2422 0.03125,2.1328 0.09375,2.6719 0.070313,0.54297 0.17969,0.93359 0.32812,1.1719 0.20703,0.32422 0.47266,0.57422 0.79688,0.75 0.32031,0.16797 0.69141,0.25 1.1094,0.25 1.0195,0 1.8203,-0.39062 2.4062,-1.1719 0.58203,-0.78125 0.875,-1.8672 0.875,-3.2656 v -7.5625 h 4.8906 V -6e-4 H 12.6875 V -2.2194 C 11.94531,-1.32096 11.1641,-0.6608 10.3437,-0.235 9.51948,0.17906 8.6093,0.39 7.6093,0.39 5.8476,0.39 4.5038,-0.14906 3.5781,-1.235 2.64841,-2.317 2.1875,-3.8952 2.1875,-5.9694 Z"
         id="path62" />
    </symbol>
    <symbol
       id="q"
       overflow="visible">
      <path
         d="M 17.75,-9.3281 V 0 h -4.9219 v -7.1406 c 0,-1.3203 -0.03125,-2.2344 -0.09375,-2.7344 -0.0625,-0.5 -0.16797,-0.86719 -0.3125,-1.1094 -0.1875,-0.3125 -0.44922,-0.55469 -0.78125,-0.73438 -0.32422,-0.17578 -0.69531,-0.26562 -1.1094,-0.26562 -1.0234,0 -1.8242,0.39844 -2.4062,1.1875 -0.58594,0.78125 -0.875,1.8711 -0.875,3.2656 V -1e-4 H 2.3594 v -15.312 H 7.25 v 2.2344 c 0.73828,-0.88281 1.5195,-1.5391 2.3438,-1.9688 0.83203,-0.42578 1.75,-0.64062 2.75,-0.64062 1.7695,0 3.1133,0.54688 4.0312,1.6406 0.91406,1.0859 1.375,2.6562 1.375,4.7188 z"
         id="path65" />
    </symbol>
    <symbol
       id="p"
       overflow="visible">
      <path
         d="m 2.5781,-20.406 h 8.7344 c 2.5938,0 4.582,0.57812 5.9688,1.7344 1.3945,1.1484 2.0938,2.7891 2.0938,4.9219 0,2.1367 -0.69922,3.7812 -2.0938,4.9375 -1.3867,1.1562 -3.375,1.7344 -5.9688,1.7344 H 7.8281 V 3e-4 h -5.25 z m 5.25,3.8125 v 5.7031 H 10.75 c 1.0195,0 1.8047,-0.25 2.3594,-0.75 0.5625,-0.5 0.84375,-1.2031 0.84375,-2.1094 0,-0.91406 -0.28125,-1.6172 -0.84375,-2.1094 -0.55469,-0.48828 -1.3398,-0.73438 -2.3594,-0.73438 z"
         id="path68" />
    </symbol>
    <symbol
       id="o"
       overflow="visible">
      <path
         d="M 2.3594,-15.312 H 7.25 v 15.031 c 0,2.0508 -0.49609,3.6172 -1.4844,4.7031 -0.98047,1.082 -2.4062,1.625 -4.2812,1.625 H -0.9375 V 2.8283 h 0.85938 c 0.92578,0 1.5625,-0.21094 1.9062,-0.625 0.35156,-0.41797 0.53125,-1.2461 0.53125,-2.4844 z m 0,-5.9688 H 7.25 v 4 H 2.3594 Z"
         id="path71" />
    </symbol>
    <symbol
       id="n"
       overflow="visible">
      <path
         d="m 14.719,-14.828 v 3.9844 c -0.65625,-0.45703 -1.3242,-0.79688 -2,-1.0156 -0.66797,-0.21875 -1.3594,-0.32812 -2.0781,-0.32812 -1.3672,0 -2.4336,0.40234 -3.2031,1.2031 -0.76172,0.79297 -1.1406,1.9062 -1.1406,3.3438 0,1.4297 0.37891,2.543 1.1406,3.3438 0.76953,0.79297 1.8359,1.1875 3.2031,1.1875 0.75781,0 1.4844,-0.10938 2.1719,-0.32812 0.6875,-0.22656 1.3203,-0.56641 1.9062,-1.0156 v 4 c -0.76172,0.28125 -1.5391,0.48828 -2.3281,0.625 -0.78125,0.14453 -1.5742,0.21875 -2.375,0.21875 -2.7617,0 -4.9219,-0.70703 -6.4844,-2.125 -1.5547,-1.4141 -2.3281,-3.3828 -2.3281,-5.9062 0,-2.5312 0.77344,-4.5039 2.3281,-5.9219 1.5625,-1.4141 3.7227,-2.125 6.4844,-2.125 0.80078,0 1.5938,0.07422 2.375,0.21875 0.78125,0.13672 1.5547,0.35156 2.3281,0.64062 z"
         id="path74" />
    </symbol>
  </defs>
  <g
     id="g213"
     transform="translate(-204.90859,-159.59763)"
     style="display:inline">
    <path
       id="path131"
       style="fill:#f0517a;fill-opacity:1;stroke-width:0.774;stroke-dasharray:none"
       d="m 392.38907,411.00661 c -69.3151,0 -125.70449,-56.38939 -125.70449,-125.70449 0,-69.3151 56.38939,-125.70449 125.70449,-125.70449 69.3151,0 125.70449,56.38939 125.70449,125.70449 0,69.3151 -56.38939,125.70449 -125.70449,125.70449 z m 0,-242.74024 c -64.53491,0 -117.03575,52.50471 -117.03575,117.03575 0,64.53491 52.50162,117.03575 117.03575,117.03575 64.53414,0 117.03575,-52.50162 117.03575,-117.03575 0,-64.53182 -52.5078,-117.03575 -117.03575,-117.03575 z m 0.0464,183.54512 c -2.59714,0 -5.22144,-0.15721 -7.82431,-0.45956 -5.86541,-0.69236 -11.45899,-2.08011 -16.64089,-4.1209 -5.19722,-2.05589 -10.24305,-4.86162 -14.98686,-8.35682 -4.82539,-3.54041 -9.13391,-7.70365 -12.80729,-12.36844 -7.12013,-9.04026 -11.80342,-19.82123 -13.54491,-31.18038 -0.89187,-5.86843 -0.99164,-11.8545 -0.29025,-17.79569 0.68027,-5.8473 2.07106,-11.4528 4.12694,-16.64398 2.02872,-5.14885 4.83143,-10.18887 8.33825,-14.97525 3.55557,-4.83143 7.71881,-9.14011 12.37772,-12.81349 9.01007,-7.10805 19.78486,-11.79413 31.15639,-13.54181 5.86541,-0.89187 11.88778,-0.99164 17.81968,-0.29932 5.8473,0.68934 11.44661,2.07709 16.64398,4.1209 5.18515,2.04985 10.21906,4.8586 14.96597,8.34754 4.81633,3.52833 9.12772,7.68855 12.80729,12.36611 7.11409,9.01549 11.79723,19.79415 13.55419,31.18038 0.89799,5.82006 0.99776,11.81271 0.29932,17.79259 -0.70747,5.91077 -2.09822,11.51318 -4.13607,16.65637 -2.04079,5.17911 -4.84652,10.21905 -8.34444,14.98067 -3.52833,4.81022 -7.68553,9.11843 -12.35682,12.8042 -9.04026,7.12617 -19.83052,11.8127 -31.19896,13.548 -3.26835,0.49886 -6.62129,0.75888 -9.95899,0.75888 z m -0.0877,-124.35774 c -2.9055,0 -5.82609,0.22676 -8.68654,0.6591 -9.88933,1.52686 -19.2655,5.59939 -27.11072,11.78562 -4.05139,3.18669 -7.66734,6.93569 -10.75465,11.12927 -3.05968,4.17833 -5.50868,8.56503 -7.26526,13.02479 -1.78081,4.50488 -2.98112,9.3692 -3.57973,14.47602 -0.61072,5.17005 -0.52305,10.37927 0.25095,15.4768 1.52074,9.87772 5.59637,19.25622 11.78794,27.12929 3.18669,4.04838 6.93569,7.66735 11.12617,10.74537 4.14815,3.0476 8.53794,5.4966 13.03717,7.27733 4.48677,1.76262 9.3576,2.97199 14.48222,3.57671 2.25852,0.26908 4.54722,0.40211 6.7997,0.40211 2.89644,0 5.80798,-0.22676 8.65016,-0.6591 9.89553,-1.51773 19.28331,-5.59033 27.15019,-11.78794 4.0514,-3.19575 7.66735,-6.94482 10.73608,-11.12618 3.05666,-4.16022 5.50566,-8.54413 7.26828,-13.02788 1.76262,-4.45952 2.97198,-9.33592 3.58878,-14.4946 0.60771,-5.20031 0.52002,-10.40636 -0.26002,-15.4559 -1.52987,-9.90791 -5.60542,-19.29259 -11.79413,-27.1378 -3.19876,-4.06046 -6.94482,-7.67648 -11.12927,-10.74537 -4.14815,-3.05063 -8.52942,-5.49962 -13.02169,-7.27432 -4.49884,-1.77175 -9.3692,-2.9781 -14.47602,-3.5767 -2.25248,-0.26304 -4.5442,-0.39607 -6.7997,-0.39607 z m -50.04394,25.34833 c -1.36657,0 -2.65155,-0.64702 -3.47694,-1.74149 -1.74753,-2.3401 -3.17764,-4.79513 -4.25093,-7.29552 -1.65078,-3.77624 -2.70597,-8.14784 -3.13228,-12.9737 -0.11187,-1.27284 0.34165,-2.53661 1.24868,-3.44064 0.90705,-0.90704 2.16177,-1.41192 3.43762,-1.25774 4.76797,0.40816 8.94661,1.3394 12.7833,2.84203 2.55178,1.00681 5.04908,2.35225 7.42857,4.00604 1.13073,0.78305 1.82013,2.05898 1.86239,3.42857 0.0393,1.3726 -0.57143,2.68785 -1.65682,3.53739 -4.04838,3.18065 -7.66433,6.92965 -10.74846,11.12617 -0.81633,1.10658 -2.10124,1.7596 -3.47694,1.76262 -0.009,0.006 -0.0151,0.006 -0.0181,0.006 z m -1.34845,-17.24538 c 0.40815,1.71123 0.93119,3.29853 1.5661,4.75883 0.0967,0.21769 0.19047,0.43235 0.29024,0.64701 1.14289,-1.27887 2.33105,-2.50944 3.56766,-3.69157 -0.21769,-0.0907 -0.43235,-0.1814 -0.65004,-0.26908 -1.49659,-0.58654 -3.0839,-1.06726 -4.774,-1.44521 z m 42.05283,-7.39088 c -1.13986,0 -2.24032,-0.45048 -3.05666,-1.26076 -0.97654,-0.97051 -1.43011,-2.34613 -1.23049,-3.70062 0.42328,-2.8692 1.14288,-5.60844 2.14056,-8.14784 1.52074,-3.8579 3.73088,-7.59785 6.76943,-11.44661 0.8103,-1.01889 2.02872,-1.62059 3.3288,-1.64776 1.28189,-0.0907 2.53963,0.54119 3.37717,1.52988 3.16549,3.72787 5.50868,7.39529 7.16549,11.20744 0.97957,2.25852 1.72941,4.67725 2.25248,7.19576 0.21164,0.51096 0.32653,1.07028 0.32653,1.65983 0,2.3976 -1.938,4.33561 -4.33561,4.33561 h -0.0877 c -0.16932,0 -0.33863,-0.009 -0.50794,-0.0303 -5.15798,-0.61073 -10.39784,-0.517 -15.48609,0.26002 -0.22373,0.0272 -0.44444,0.0454 -0.65608,0.0454 z m 8.15094,-14.46441 c -0.901,1.51773 -1.64172,3.01734 -2.23731,4.52609 -0.0877,0.22071 -0.16931,0.44142 -0.25094,0.66213 1.71122,-0.0967 3.40736,-0.11791 5.14583,-0.0907 -0.0907,-0.22071 -0.18141,-0.44746 -0.27211,-0.66213 -0.64701,-1.48452 -1.43615,-2.95689 -2.38545,-4.43537 z m -37.2841,27.13471 c -0.86169,0 -1.72639,-0.26002 -2.47013,-0.77701 -1.82918,-1.26982 -3.73088,-2.29784 -5.66587,-3.05666 -3.03855,-1.1973 -6.41874,-1.94103 -10.34289,-2.27663 -2.09219,-0.17839 -3.75813,-1.8322 -3.94861,-3.92741 -2.10124,-23.40405 10.80574,-51.29805 11.35605,-52.47143 0.89187,-1.91687 3.05666,-2.88738 5.08538,-2.34009 1.23963,0.34769 30.46056,8.64397 46.45516,27.51319 1.33638,1.57214 1.3726,3.86998 0.0967,5.49057 -2.50643,3.16548 -4.30534,6.19497 -5.50867,9.24536 -0.75888,1.92593 -1.30914,4.02114 -1.63267,6.2343 -0.2721,1.88661 -1.74752,3.36208 -3.6281,3.65534 -9.89552,1.52686 -19.27092,5.59939 -27.11691,11.78562 -0.78003,0.61376 -1.72639,0.92516 -2.67871,0.92516 z M 339.8952,226.54121 c 3.25016,0.50189 6.22826,1.30008 9.01858,2.3976 1.60844,0.6319 3.19877,1.40287 4.74978,2.30086 7.64923,-5.4754 16.41101,-9.28484 25.64786,-11.14398 0.40212,-1.74753 0.92214,-3.43158 1.55101,-5.037 1.12771,-2.85713 2.63035,-5.65078 4.57137,-8.46828 -11.36844,-11.65559 -28.81041,-18.5395 -36.2841,-21.10065 -3.02036,7.40133 -9.56271,25.26939 -9.25466,41.05191 z m 109.28187,117.74705 c -0.0816,0 -0.16024,-0.003 -0.24792,-0.009 -5.03097,-0.28117 -9.30574,-1.14288 -13.07355,-2.62128 -2.53057,-0.99776 -5.02492,-2.34614 -7.40434,-3.99088 -1.13073,-0.78305 -1.82013,-2.05898 -1.8685,-3.42856 -0.0423,-1.3726 0.57142,-2.68785 1.65078,-3.53739 4.05139,-3.19575 7.66734,-6.94482 10.73608,-11.12617 0.81633,-1.1096 2.09822,-1.76262 3.47694,-1.77175 h 0.0211 c 1.36052,0 2.64853,0.64096 3.4709,1.73243 1.73847,2.32198 3.16858,4.78003 4.25697,7.29552 1.62059,3.71881 2.69691,7.84908 3.2774,12.6045 0.15723,1.27284 -0.26001,2.55179 -1.13986,3.48902 -0.81633,0.87074 -1.96223,1.36354 -3.15643,1.36354 z m -10.77246,-10.95667 c 0.21164,0.0907 0.42328,0.17838 0.63794,0.26002 1.46633,0.58049 3.05666,1.03699 4.80721,1.3726 -0.4384,-1.67199 -0.9675,-3.22903 -1.60241,-4.68933 -0.0907,-0.21164 -0.18745,-0.42328 -0.28117,-0.63189 -1.14288,1.26981 -2.33104,2.50039 -3.56162,3.68855 z m -44.70749,34.95825 c -1.23963,0 -2.42175,-0.5291 -3.2411,-1.45728 -3.14737,-3.54644 -5.56007,-7.22896 -7.18058,-10.94816 -1.09753,-2.53057 -1.90774,-5.24559 -2.41874,-8.06657 -0.24187,-1.35147 0.16932,-2.73924 1.1096,-3.73994 0.94637,-0.99776 2.30991,-1.49962 3.66742,-1.33638 5.15496,0.60771 10.39475,0.517 15.4559,-0.26002 1.35148,-0.20861 2.73623,0.23885 3.70976,1.20031 0.97655,0.97052 1.43615,2.3401 1.23963,3.70063 -0.41723,2.84807 -1.13073,5.59033 -2.13754,8.14784 -1.47849,3.73089 -3.71881,7.38925 -6.86619,11.18655 -0.81029,0.97655 -2.00147,1.54799 -3.26834,1.56912 -0.0181,0.003 -0.0423,0.003 -0.0695,0.003 z m -2.73924,-16.49306 c 0.0877,0.21769 0.17234,0.42933 0.26908,0.6319 0.62283,1.43615 1.41193,2.87833 2.36735,4.32044 0.92817,-1.49056 1.67198,-2.95086 2.24938,-4.40511 0.0816,-0.21165 0.16024,-0.42329 0.24187,-0.63795 -1.7082,0.1028 -3.40132,0.13304 -5.12771,0.0907 z m 47.10462,42.97142 c -0.44746,0 -0.89187,-0.0695 -1.33939,-0.21164 -1.24265,-0.40212 -30.64555,-10.08283 -46.27019,-27.7214 -1.41192,-1.59938 -1.45727,-3.99087 -0.0907,-5.63871 2.55782,-3.08692 4.34768,-5.97732 5.48445,-8.84366 0.75888,-1.92895 1.30611,-4.01812 1.61749,-6.20101 0.27211,-1.88963 1.74753,-3.37717 3.63716,-3.66742 9.88933,-1.51773 19.28021,-5.59033 27.14709,-11.78794 1.50867,-1.17911 3.58878,-1.24265 5.14885,-0.16024 1.83824,1.27283 3.73088,2.29783 5.65078,3.05062 2.88739,1.14288 6.27965,1.80797 10.37927,2.04079 2.08917,0.11791 3.80047,1.71734 4.05743,3.80047 3.01735,24.64399 -10.97524,51.86075 -11.57354,53.00316 -0.76795,1.47237 -2.27059,2.33708 -3.84884,2.33708 z m -38.65717,-31.11072 c 11.32897,11.0836 28.93115,18.53021 36.42342,21.37232 3.23809,-7.22896 10.15559,-24.77093 9.33903,-41.08519 -3.4497,-0.4384 -6.51851,-1.19126 -9.30574,-2.28871 -1.59637,-0.63189 -3.17764,-1.39682 -4.72865,-2.29172 -7.66734,5.48445 -16.435,9.29723 -25.67186,11.15327 -0.40211,1.72941 -0.92213,3.41037 -1.551,5.01889 -1.07632,2.71502 -2.56386,5.39985 -4.50489,8.12075 z m -68.48692,-64.65565 c -0.20862,0 -0.42026,-0.0181 -0.62887,-0.0484 -2.86015,-0.42025 -5.59939,-1.13986 -8.14475,-2.13754 -3.77926,-1.4966 -7.49506,-3.7853 -11.34676,-7.00527 -0.98259,-0.81935 -1.55101,-2.04079 -1.55101,-3.32578 0,-1.28189 0.56235,-2.49737 1.54195,-3.32578 3.66742,-3.07787 7.26526,-5.35751 10.99924,-6.98406 2.52152,-1.09149 5.24559,-1.90171 8.08747,-2.41874 1.34845,-0.25699 2.73623,0.16932 3.73692,1.1096 0.99776,0.94637 1.4966,2.30086 1.33638,3.66742 -0.61072,5.16704 -0.52305,10.37618 0.25095,15.47371 0.20861,1.3575 -0.24187,2.73622 -1.20937,3.70673 -0.81935,0.83747 -1.92291,1.28801 -3.07183,1.28801 z m -10.04413,-12.53175 c 1.50867,0.94636 2.98111,1.69915 4.4565,2.27662 0.21769,0.0877 0.43235,0.16932 0.65004,0.25095 -0.0907,-1.71123 -0.12094,-3.42555 -0.0877,-5.13979 -0.22072,0.0907 -0.44142,0.18141 -0.65306,0.27211 -1.46633,0.64096 -2.91456,1.41795 -4.3658,2.34009 z m -7.29336,4.35062 c -0.98862,0 -1.97128,-0.33258 -2.77848,-1.00681 -18.05266,-15.05652 -28.68038,-43.86693 -29.12156,-45.0852 -0.72259,-1.9894 0.0967,-4.21161 1.93801,-5.25774 1.05217,-0.59864 27.89709,-15.54337 52.5109,-13.37541 2.09219,0.18141 3.75813,1.84126 3.94559,3.93646 0.34165,3.88809 1.17005,7.34993 2.44598,10.28562 0.81633,1.89869 1.90774,3.75813 3.2562,5.56007 1.13986,1.52686 1.14892,3.61602 0.0211,5.14884 -3.06572,4.18747 -5.50868,8.57432 -7.26828,13.03408 -1.7808,4.50488 -2.98112,9.3692 -3.57972,14.47602 -0.22072,1.89869 -1.65983,3.42555 -3.53739,3.76115 -2.18894,0.39304 -4.26603,1.00983 -6.17083,1.83824 -2.95991,1.28189 -5.86541,3.13831 -8.87385,5.66889 -0.80728,0.68027 -1.79892,1.01587 -2.78762,1.01587 z m -22.33671,-45.53256 c 3.10201,7.37408 11.13546,24.6138 22.52479,35.54648 2.65156,-1.93197 5.30009,-3.4709 8.0271,-4.65001 1.58731,-0.68933 3.25016,-1.26679 4.97656,-1.72035 0.76795,-4.74676 2.00759,-9.30342 3.70062,-13.58439 1.67199,-4.24187 3.87903,-8.42028 6.56688,-12.43809 -0.95843,-1.52988 -1.77779,-3.08994 -2.45805,-4.67121 -1.20937,-2.76944 -2.09822,-5.85636 -2.65759,-9.20667 -16.34754,-0.28118 -33.57821,7.25016 -40.68039,10.72369 z m 162.89416,51.61616 c -1.09148,0 -2.15263,-0.41723 -2.96594,-1.17608 -1.00078,-0.94025 -1.50264,-2.29784 -1.34242,-3.66139 0.60771,-5.21842 0.52003,-10.42493 -0.26002,-15.4737 -0.20861,-1.35751 0.23885,-2.73623 1.20635,-3.70976 0.9675,-0.97957 2.33708,-1.46935 3.69761,-1.23661 2.85712,0.41119 5.59939,1.13073 8.15403,2.13151 3.80047,1.49961 7.49506,3.67043 11.2833,6.6394 1.00983,0.79211 1.62059,1.9894 1.65983,3.27137 0.0423,1.28189 -0.48677,2.5185 -1.44218,3.37113 -3.62207,3.23808 -7.3771,5.70821 -11.15327,7.34389 -2.50039,1.09149 -5.21541,1.90171 -8.05728,2.42176 -0.26304,0.0574 -0.52305,0.0786 -0.78004,0.0786 z m 4.65907,-15.3042 c 0.0967,1.70217 0.12093,3.41038 0.0877,5.12772 0.21769,-0.0877 0.42933,-0.17234 0.63795,-0.26909 1.45727,-0.6319 2.92663,-1.43917 4.39907,-2.41572 -1.49961,-0.88281 -2.98112,-1.61145 -4.4716,-2.20108 -0.21768,-0.0816 -0.43234,-0.16629 -0.65306,-0.24187 z m -6.64823,62.76556 c -0.003,0 -0.003,0 0,0 -1.07934,0 -2.15264,-0.0303 -3.21084,-0.0907 -2.09219,-0.11187 -3.80651,-1.71734 -4.06046,-3.80047 -0.48072,-3.9093 -1.33939,-7.24715 -2.62732,-10.20435 -0.83143,-1.92895 -1.89265,-3.73994 -3.24714,-5.54498 -1.14288,-1.52987 -1.15194,-3.6281 -0.0211,-5.16703 3.05062,-4.15117 5.49962,-8.53484 7.26526,-13.02169 1.76261,-4.45952 2.97198,-9.33592 3.58878,-14.4946 0.22978,-1.88963 1.65983,-3.40736 3.52833,-3.74598 2.2192,-0.40816 4.23584,-1.00681 6.15868,-1.84729 2.92662,-1.26982 5.89567,-3.24111 8.82818,-5.86541 1.56912,-1.39985 3.91533,-1.47237 5.56007,-0.17839 19.52247,15.3042 28.8522,44.39248 29.2423,45.62003 0.63189,2.02268 -0.28118,4.2086 -2.17083,5.16704 -1.05217,0.54723 -26.14012,13.17339 -48.83442,13.17339 z m -4.4021,-22.20668 c 0.94938,1.52074 1.76874,3.08088 2.45202,4.66509 1.1791,2.712 2.07709,5.64475 2.69691,8.87385 15.82432,-0.22071 33.4358,-7.3288 40.72218,-10.60295 -2.8178,-7.38925 -10.3189,-24.65328 -22.40328,-35.61614 -2.70898,2.07709 -5.46935,3.72183 -8.23917,4.92818 -1.57214,0.68933 -3.23808,1.26679 -4.96146,1.72639 -0.78305,4.78004 -2.02268,9.33593 -3.70063,13.58748 -1.68707,4.26603 -3.8911,8.44119 -6.56688,12.4381 z m -110.25749,24.10297 c -1.14288,0 -2.24938,-0.45049 -3.05968,-1.2668 -0.91006,-0.90704 -1.36656,-2.1678 -1.25774,-3.44668 0.41723,-4.78003 1.35147,-8.95512 2.84807,-12.77401 1.01889,-2.56687 2.3613,-5.05821 4.00604,-7.42555 0.78305,-1.12771 2.05589,-1.82012 3.42857,-1.86238 1.33638,-0.0574 2.68785,0.57142 3.53135,1.65077 3.18971,4.0514 6.93871,7.67045 11.12927,10.74847 1.1096,0.81633 1.76262,2.10124 1.76873,3.47996 0.003,1.36958 -0.64096,2.66664 -1.74149,3.48901 -2.34009,1.74149 -4.78909,3.16858 -7.28646,4.25093 -3.79134,1.64776 -8.16023,2.69993 -12.98531,3.13228 -0.12396,0.0181 -0.25396,0.0241 -0.38095,0.0241 z m 6.86619,-14.95977 c -0.0968,0.22071 -0.18746,0.43839 -0.26909,0.65305 -0.58957,1.49056 -1.06726,3.07183 -1.44218,4.76797 1.71734,-0.40816 3.30758,-0.9312 4.77098,-1.5661 0.21164,-0.0907 0.42932,-0.19048 0.63794,-0.28723 -1.28801,-1.13986 -2.5185,-2.33104 -3.69761,-3.56765 z m -11.80427,15.16875 c -22.12852,0 -46.12235,-11.10528 -47.13242,-11.58284 -1.91687,-0.89187 -2.90851,-3.04156 -2.34009,-5.08537 0.34769,-1.24265 8.69815,-30.68735 27.72139,-46.64557 1.60241,-1.34242 3.9456,-1.35148 5.56611,-0.003 3.13228,2.61827 6.06495,4.44745 8.9675,5.59033 1.9199,0.75888 4.0151,1.30914 6.21611,1.62965 1.88661,0.2721 3.36812,1.74752 3.65836,3.63112 1.52075,9.88391 5.59637,19.2655 11.78795,27.13238 1.17608,1.4966 1.23963,3.58577 0.15116,5.14885 -1.26076,1.82013 -2.29172,3.72183 -3.05967,5.66587 -1.18213,3.01735 -1.93197,6.40961 -2.27663,10.34599 -0.18141,2.08917 -1.83824,3.7521 -3.92741,3.93948 -1.7596,0.16327 -3.5404,0.2328 -5.33329,0.2328 z m -39.97529,-17.93501 c 7.22594,2.95991 24.45359,9.26704 39.97529,9.26704 0.35978,0 0.71957,0 1.07631,-0.009 0.51096,-3.25921 1.30612,-6.23429 2.39761,-9.01858 0.63794,-1.6175 1.4089,-3.19877 2.30085,-4.74676 -5.47841,-7.66433 -9.28794,-16.43191 -11.14398,-25.65947 -1.74148,-0.40212 -3.42554,-0.92214 -5.02794,-1.55101 -2.7997,-1.10658 -5.55102,-2.6425 -8.36611,-4.67725 -11.75234,11.38933 -18.65173,28.91025 -21.2121,36.39555 z M 441.1817,251.09929 c -1.32724,0 -2.58197,-0.60771 -3.40132,-1.65078 -3.19876,-4.06045 -6.94482,-7.67648 -11.12927,-10.74537 -1.10658,-0.81633 -1.76262,-2.10124 -1.76873,-3.47995 -0.003,-1.36959 0.63794,-2.66665 1.73847,-3.48902 2.32802,-1.73847 4.78003,-3.16858 7.28948,-4.25697 3.73089,-1.62663 7.8576,-2.69691 12.6076,-3.2774 1.30008,-0.1421 2.55179,0.26908 3.48902,1.14288 0.93723,0.87678 1.43614,2.11943 1.36052,3.40132 -0.2721,5.01587 -1.13684,9.29413 -2.61827,13.06426 -1.00077,2.53963 -2.34923,5.037 -4.00604,7.42555 -0.78305,1.12771 -2.05588,1.82012 -3.42856,1.86238 -0.0423,0.003 -0.0907,0.003 -0.13304,0.003 z m -4.45952,-15.37695 c 1.27887,1.13986 2.50944,2.32802 3.69156,3.56161 0.0907,-0.21769 0.18141,-0.43235 0.26909,-0.65003 0.5805,-1.46634 1.037,-3.05968 1.3726,-4.80117 -1.67198,0.43235 -3.22902,0.96749 -4.69536,1.6024 -0.21466,0.0907 -0.4263,0.18746 -0.63794,0.28722 z m 34.51374,52.44356 c -0.94636,0 -1.88661,-0.30234 -2.66966,-0.92214 -3.12625,-2.43986 -6.10729,-4.21161 -9.11844,-5.39683 -1.92593,-0.76191 -4.01509,-1.30914 -6.20705,-1.62663 -1.88963,-0.26909 -3.37113,-1.74149 -3.66742,-3.6281 -1.52987,-9.90791 -5.60542,-19.29259 -11.79413,-27.1378 -1.1791,-1.4966 -1.24265,-3.58879 -0.15721,-5.15496 1.26981,-1.83824 2.30085,-3.73693 3.05666,-5.65984 1.14288,-2.89644 1.80797,-6.28569 2.03777,-10.36766 0.11187,-2.09219 1.71734,-3.80651 3.80047,-4.06046 2.29784,-0.28117 4.72563,-0.42932 7.20481,-0.42932 22.50312,0 44.8646,11.50388 45.80191,11.99692 1.87756,0.97956 2.77547,3.16548 2.11943,5.17911 -0.40211,1.23661 -10.01394,30.43037 -27.51938,46.09525 -0.81633,0.73771 -1.85333,1.11262 -2.88739,1.11262 z m -13.64166,-15.94275 c 1.73847,0.40212 3.41951,0.92214 5.02795,1.55101 2.77547,1.09753 5.49056,2.54877 8.22679,4.40814 10.99614,-11.31658 18.42185,-28.84679 21.25467,-36.32358 -6.82988,-3.05968 -22.86922,-9.40558 -38.38859,-9.40558 -0.91007,0 -1.80798,0.0272 -2.68785,0.0695 -0.43235,3.43762 -1.18213,6.50032 -2.28569,9.29723 -0.6319,1.6024 -1.39985,3.18971 -2.30085,4.74675 5.47539,7.64622 9.29103,16.41101 11.15326,25.65638 z M 350.3302,396.26201 c -1.52686,0 -2.98716,-0.8103 -3.77625,-2.20712 -0.63189,-1.12168 -15.50698,-27.79725 -13.38469,-52.50781 0.17838,-2.09218 1.83824,-3.75813 3.93042,-3.94559 3.89722,-0.3477 7.36503,-1.17609 10.30652,-2.449 1.91084,-0.82841 3.72787,-1.89265 5.55101,-3.25016 1.5329,-1.13684 3.62206,-1.15193 5.15496,-0.0181 4.14815,3.0476 8.53794,5.4966 13.03717,7.27733 4.48677,1.76262 9.3576,2.97199 14.48222,3.57671 1.89264,0.22676 3.41649,1.65983 3.75209,3.53135 0.39002,2.17082 1.00681,4.24188 1.83824,6.15566 1.2517,2.87221 3.1716,5.78685 5.71123,8.64707 1.41796,1.59938 1.46029,3.99698 0.0968,5.64474 -15.02324,18.14631 -43.99696,28.8375 -45.23071,29.28177 -0.47166,0.18141 -0.97051,0.26304 -1.46935,0.26304 z m -8.68964,-50.50006 c -0.22676,16.31426 7.26525,33.56892 10.74537,40.68271 7.38623,-3.11107 24.68888,-11.17494 35.61924,-22.60916 -1.96827,-2.6062 -3.54947,-5.26982 -4.72563,-7.95435 -0.68632,-1.59032 -1.26076,-3.25015 -1.72036,-4.96749 -4.74977,-0.77097 -9.30342,-2.01061 -13.57509,-3.69157 -4.28724,-1.69613 -8.46596,-3.89722 -12.45667,-6.57896 -1.52686,0.9524 -3.08693,1.77175 -4.65907,2.45805 -2.78762,1.21239 -5.87756,2.10125 -9.22756,2.66061 z m 87.57518,-106.2184 c -0.901,0 -1.80193,-0.27816 -2.56687,-0.84048 -4.14815,-3.04761 -8.52943,-5.4966 -13.02169,-7.26828 -4.49885,-1.77175 -9.36921,-2.9781 -14.47603,-3.57671 -1.88963,-0.22675 -3.41037,-1.65077 -3.75209,-3.51927 -0.40211,-2.19799 -1.02191,-4.28112 -1.85031,-6.198 -1.30914,-3.00828 -3.21084,-5.96819 -5.81704,-9.03716 -1.3394,-1.57214 -1.37864,-3.87601 -0.0968,-5.4966 15.34368,-19.41024 44.26554,-28.69199 45.49,-29.08208 2.02872,-0.6319 4.20558,0.28117 5.16703,2.1678 0.58957,1.16099 14.39476,28.58982 13.07664,52.06353 -0.11186,2.09219 -1.71734,3.80651 -3.80046,4.06046 -3.90628,0.47165 -7.24715,1.33034 -10.20435,2.61827 -1.92895,0.83142 -3.73994,1.89868 -5.55102,3.24714 -0.77399,0.57747 -1.68405,0.86169 -2.59713,0.86169 z m -25.9861,-19.8669 c 4.74072,0.77097 9.30342,2.00759 13.58438,3.6976 4.26905,1.6901 8.44429,3.89111 12.435,6.5699 1.52075,-0.9524 3.07787,-1.77175 4.65907,-2.45805 2.72105,-1.18212 5.65078,-2.07709 8.87694,-2.69087 -0.21164,-15.81271 -7.3257,-33.4358 -10.60295,-40.72528 -7.37408,2.81177 -24.56814,10.28871 -35.5372,22.32201 2.03174,2.74226 3.63716,5.48747 4.8586,8.30806 0.68329,1.59032 1.26076,3.25619 1.72639,4.97655 z m -10.84057,98.64409 c -18.20977,0 -33.02481,-14.81504 -33.02481,-33.02481 0,-18.20978 14.81504,-33.02481 33.02481,-33.02481 18.20978,0 33.02481,14.81503 33.02481,33.02481 0,18.20977 -14.81503,33.02481 -33.02481,33.02481 z m 0,-57.37856 c -13.43268,0 -24.35374,10.92649 -24.35374,24.35375 0,13.42726 10.92648,24.35374 24.35374,24.35374 13.42726,0 24.35375,-10.92648 24.35375,-24.35374 0,-13.42726 -10.92649,-24.35375 -24.35375,-24.35375 z m -43.21987,17.61844 c -9.74459,0 -18.9025,-3.79737 -25.7895,-10.68499 -18.94198,-18.94198 -16.48067,-62.07671 -16.36303,-63.90566 0.13001,-2.10735 1.76262,-3.81556 3.86998,-4.03932 0.16931,-0.0211 4.24188,-0.44746 10.41874,-0.44746 13.77169,0 39.05655,2.17988 53.66261,16.79181 14.22215,14.22216 14.22215,37.36615 0,51.59759 -6.89645,6.89645 -16.0542,10.6881 -25.7988,10.6881 z m -33.61769,-70.26711 c -0.13907,10.52478 0.70144,40.20206 13.9559,53.45672 5.25473,5.25473 12.23299,8.14475 19.66102,8.14475 7.42803,0 14.41565,-2.89644 19.6703,-8.14475 10.83903,-10.84831 10.83903,-28.49229 0,-39.33751 -12.40172,-12.40172 -35.10763,-14.25234 -47.53411,-14.25234 -2.2555,-0.003 -4.21464,0.0635 -5.75357,0.13304 z M 467.4356,370.82854 c -15.35605,0 -43.25624,-2.14961 -57.63552,-16.52324 -14.21596,-14.21596 -14.21596,-37.36305 0,-51.5883 6.89645,-6.89033 16.0542,-10.685 25.7988,-10.685 9.74459,0 18.9025,3.79134 25.79879,10.685 20.69507,20.70436 16.53485,62.33367 16.34445,64.09373 -0.22071,2.10125 -1.92895,3.73693 -4.03932,3.86998 0.006,-0.003 -2.37942,0.14815 -6.26758,0.14815 z m -31.83363,-70.12547 c -7.42857,0 -14.41565,2.89644 -19.6703,8.14474 -10.83902,10.84831 -10.83902,28.48998 0,39.32823 12.62308,12.62308 40.22374,13.98608 51.50393,13.98608 0.70144,0 1.35148,-0.009 1.94103,-0.0181 0.4777,-10.22834 0.387,-38.79649 -14.1076,-53.2996 -5.25171,-5.2456 -12.23841,-8.14243 -19.66721,-8.14243 z M 331.2667,321.78049 c -26.78176,0 -55.54031,-32.24462 -56.75548,-33.62078 -1.39683,-1.58127 -1.44823,-3.9456 -0.12094,-5.58732 1.11262,-1.37864 27.60065,-33.75623 56.87623,-33.75623 20.11148,0 36.4776,16.36302 36.48689,36.4776 -0.006,20.11767 -16.37464,36.48689 -36.48689,36.48689 z m -47.65485,-36.59524 c 7.33785,7.53739 28.92186,27.92727 47.65485,27.92727 15.33207,0 27.80964,-12.47756 27.81815,-27.81814 -0.009,-15.33206 -12.48686,-27.80963 -27.81815,-27.80963 -20.53795,0 -40.77094,20.11767 -47.65485,27.7005 z m 169.88411,36.59524 c -20.11148,0 -36.4776,-16.36612 -36.48689,-36.48689 0.009,-20.11457 16.37463,-36.4776 36.48689,-36.4776 29.27558,0 55.7671,32.37775 56.87933,33.75005 1.33034,1.64775 1.27887,4.00906 -0.11791,5.59637 -1.20635,1.36958 -29.97682,33.61769 -56.76168,33.61769 z m 0,-64.29574 c -15.33206,0 -27.80963,12.47757 -27.81815,27.80963 0.009,15.34058 12.48686,27.81814 27.81815,27.81814 18.7299,0 40.31739,-20.38083 47.66105,-27.92727 -6.89947,-7.57672 -27.16257,-27.7005 -47.66105,-27.7005 z M 317.3348,370.82854 c -3.89111,0 -6.27664,-0.15117 -6.27664,-0.15117 -2.10735,-0.13001 -3.81858,-1.76262 -4.03932,-3.86997 -0.19047,-1.7596 -4.3507,-43.38628 16.34445,-64.09373 6.89645,-6.89034 16.0542,-10.685 25.79879,-10.685 9.7446,0 18.9025,3.79133 25.7988,10.685 14.21596,14.22525 14.21596,37.36924 0,51.59758 -14.36999,14.37309 -42.27328,16.51705 -57.62624,16.51705 z m -1.95008,-8.68654 c 0.59259,0.009 1.24265,0.0181 1.95008,0.0181 11.28329,0 38.88395,-1.36053 51.50084,-13.97757 10.83592,-10.84522 10.83592,-28.4923 0,-39.33751 -5.25473,-5.24862 -12.23841,-8.14475 -19.67031,-8.14475 -7.42857,0 -14.41565,2.89644 -19.6703,8.14475 -14.52788,14.53639 -14.59677,43.08055 -14.10992,53.2965 z M 435.6012,278.56836 c -9.74459,0 -18.9056,-3.79737 -25.79879,-10.68809 -14.22216,-14.22215 -14.22216,-37.36615 0,-51.5883 14.61224,-14.61534 39.9033,-16.8011 53.67808,-16.8011 6.17687,0 10.24614,0.42327 10.41565,0.44746 2.10124,0.22071 3.73692,1.92895 3.86997,4.03932 0.11187,1.82918 2.5699,44.97297 -16.37153,63.90565 -6.88732,6.88732 -16.05111,10.685 -25.79261,10.685 z m 27.87929,-70.40953 c -12.4319,0 -35.14401,1.85635 -47.54959,14.26163 -10.84522,10.84522 -10.84522,28.48688 0,39.32822 5.25774,5.25473 12.2384,8.14785 19.6703,8.14785 7.42857,0 14.40636,-2.89041 19.66102,-8.14785 13.27555,-13.27246 14.11302,-42.93581 13.96828,-53.45672 -1.54195,-0.0665 -3.50109,-0.13303 -5.75055,-0.13303 z m -71.09916,196.09855 c -0.96749,0 -1.92593,-0.32048 -2.72709,-0.9675 -1.3726,-1.11262 -33.75004,-27.60684 -33.75004,-56.87933 0,-20.11457 16.36302,-36.4776 36.4776,-36.4776 20.12076,0 36.48688,16.36303 36.48688,36.4776 0,26.78177 -32.24462,55.54961 -33.61769,56.76168 -0.82236,0.71958 -1.84729,1.08538 -2.86919,1.08538 z m 0,-85.65801 c -15.33438,0 -27.80963,12.47448 -27.80963,27.80964 0,20.54104 20.12386,40.77714 27.7005,47.66414 7.53739,-7.34389 27.92728,-28.93115 27.92728,-47.66414 0,-15.33439 -12.47757,-27.80964 -27.81815,-27.80964 z m 0,-57.93351 c -20.11457,0 -36.4776,-16.36611 -36.4776,-36.48688 0,-29.27558 32.37775,-55.76091 33.75624,-56.87623 1.6387,-1.32121 3.99698,-1.27888 5.58731,0.12093 1.3726,1.20937 33.62078,29.9714 33.62078,56.75549 0,20.12077 -16.37153,36.48689 -36.48688,36.48689 z m -0.10884,-84.14097 c -7.5706,6.89645 -27.70669,27.16258 -27.70669,47.65486 0,15.34058 12.47448,27.81815 27.80963,27.81815 15.34058,0 27.81815,-12.47757 27.81815,-27.81815 0.006,-18.76628 -20.37773,-40.31739 -27.92109,-47.65486 z" />
  </g>
  <g
     inkscape:groupmode="layer"
     id="layer1"
     inkscape:label="text overlay"
     transform="translate(-56.026558,52.5)"
     style="display:inline">
    <path
       style="display:inline;fill:none;stroke:#f0517a;stroke-width:8.074;stroke-linecap:round;stroke-linejoin:round;stroke-dasharray:none;stroke-opacity:1"
       d="M 60.063558,258.79237 V 364.83049 H 131.25 l 48.19915,-108.2627 48.94068,109.00423"
       id="path523"
       sodipodi:nodetypes="ccccc" />
    <path
       style="fill:none;stroke:#f0517a;stroke-width:8.074;stroke-linecap:round;stroke-linejoin:round;stroke-dasharray:none;stroke-opacity:1"
       d="m 329.23728,273.62287 c -25.17662,-24.50835 -87.77364,-13.98229 -88.24152,40.7839 -0.46789,54.76619 66.0184,60.75838 89.72457,37.8178"
       id="path2796"
       sodipodi:nodetypes="czc" />
    <path
       id="path2800"
       style="fill:none;stroke:#f0517a;stroke-width:8.074;stroke-linecap:round;stroke-linejoin:round;stroke-dasharray:none;stroke-opacity:1"
       d="m 421.18643,312.1822 h -60.80509 m 65.99577,-51.16526 h -68.96187 v 102.3305 h 69.70339" />
    <path
       style="fill:none;stroke:#f0517a;stroke-width:8.07397;stroke-linecap:round;stroke-linejoin:round;stroke-dasharray:none;stroke-opacity:1"
       d="m 167.02868,284.92795 36.33474,80.82627"
       id="path5596-8-6"
       sodipodi:nodetypes="cc" />
    <path
       style="fill:none;stroke:#f0517a;stroke-width:8.07397;stroke-linecap:round;stroke-linejoin:round;stroke-dasharray:none;stroke-opacity:1"
       d="m 377.84858,261.90677 v 99.36441"
       id="path5669"
       sodipodi:nodetypes="cc" />
    <path
       style="fill:none;stroke:#f0517a;stroke-width:8.07397;stroke-linecap:round;stroke-linejoin:round;stroke-dasharray:none;stroke-opacity:1"
       d="m 262.17062,273.77118 v 81.56779"
       id="path5725" />
  </g>
</svg>
